<svg width="26" height="14" viewBox="0 0 26 14" fill="none" xmlns="http://www.w3.org/2000/svg">
<path d="M0.919998 14V11.68H2.76V2.32H0.919998V0H6.68C8.56 0 9.98667 0.48 10.96 1.44C11.9467 2.38667 12.44 3.8 12.44 5.68V8.32C12.44 10.2 11.9467 11.62 10.96 12.58C9.98667 13.5267 8.56 14 6.68 14H0.919998ZM5.4 11.6H6.72C7.78666 11.6 8.56667 11.32 9.06 10.76C9.55333 10.2 9.8 9.41333 9.8 8.4V5.6C9.8 4.57333 9.55333 3.78667 9.06 3.24C8.56667 2.68 7.78666 2.4 6.72 2.4H5.4V11.6Z" fill="black"/>
<path d="M18.56 14V2.4H14.48V0H25.28V2.4H21.2V14H18.56Z" fill="black"/>
</svg>
