<svg width="25" height="14" viewBox="0 0 25 14" fill="none" xmlns="http://www.w3.org/2000/svg">
<path d="M0 14V11.68H1.84V2.32H0V0H5.76C7.64 0 9.06667 0.48 10.04 1.44C11.0267 2.38667 11.52 3.8 11.52 5.68V8.32C11.52 10.2 11.0267 11.62 10.04 12.58C9.06667 13.5267 7.64 14 5.76 14H0ZM4.48 11.6H5.8C6.86667 11.6 7.64667 11.32 8.14 10.76C8.63333 10.2 8.88 9.41333 8.88 8.4V5.6C8.88 4.57333 8.63333 3.78667 8.14 3.24C7.64667 2.68 6.86667 2.4 5.8 2.4H4.48V11.6Z" fill="white"/>
<path d="M17.64 14V2.4H13.56V0H24.36V2.4H20.28V14H17.64Z" fill="white"/>
</svg>
